<?xml version="1.0" standalone="no"?>
<svg xmlns="http://www.w3.org/2000/svg" xmlns:xlink="http://www.w3.org/1999/xlink" height="1300px" width="1200px">
  <defs>
    <pattern id="doodad" width="51" height="51" viewBox="0 0 40 40" patternUnits="userSpaceOnUse" patternTransform="rotate(74)">
      <rect width="100%" height="100%" fill="rgba(26, 32, 44,1)"/>
      <path d="M-20 11l20-20l20 20l20-20l20 20l20-20l20 20v-2l-20-20l-20 20l-20-20l-20 20l-20-20l-20 20zM-20-29l20-20l20 20l20-20l20 20l20-20l20 20v-2l-20-20l-20 20l-20-20l-20 20l-20-20l-20 20zM-20 51l20-20l20 20l20-20l20 20l20-20l20 20v-2l-20-20l-20 20l-20-20l-20 20l-20-20l-20 20z " fill="rgba(45, 55, 72,1)"/>
      <path d="M-20 30.5l20-20l20 20l20-20l20 20l20-20l20 20v-1l-20-20l-20 20l-20-20l-20 20l-20-20l-20 20zM-20-9.5l20-20l20 20l20-20l20 20l20-20l20 20v-1l-20-20l-20 20l-20-20l-20 20l-20-20l-20 20zM-20 70.5l20-20l20 20l20-20l20 20l20-20l20 20v-1l-20-20l-20 20l-20-20l-20 20l-20-20l-20 20z " fill="rgba(254, 252, 191,1)"/>
      <path d="M-20 31l20-20l20 20l20-20l20 20l20-20l20 20v-2l-20-20l-20 20l-20-20l-20 20l-20-20l-20 20zM-20-9l20-20l20 20l20-20l20 20l20-20l20 20v-2l-20-20l-20 20l-20-20l-20 20l-20-20l-20 20zM-20 71l20-20l20 20l20-20l20 20l20-20l20 20v-2l-20-20l-20 20l-20-20l-20 20l-20-20l-20 20z " fill="rgba(45, 55, 72,1)"/>
    </pattern>
  </defs>
  <rect fill="url(#doodad)" height="200%" width="200%"/>
</svg>
